<?xml version="1.0" standalone="no"?>
<svg xmlns="http://www.w3.org/2000/svg" width="24" height="24" viewBox="0 0 24 24" fill="#000000">
  <path d="M6 10.25C3.37665 10.25 1.25 12.3766 1.25 15C1.25 17.6234 3.37665 19.75 6 19.75C8.62335 19.75 10.75 17.6234 10.75 15C10.75 12.3766 8.62335 10.25 6 10.25ZM2.75 15C2.75 13.2051 4.20507 11.75 6 11.75C7.79493 11.75 9.25 13.2051 9.25 15C9.25 16.7949 7.79493 18.25 6 18.25C4.20507 18.25 2.75 16.7949 2.75 15Z" fill="#000000"/>
  <path d="M18 10.25C15.3766 10.25 13.25 12.3766 13.25 15C13.25 17.6234 15.3766 19.75 18 19.75C20.6234 19.75 22.75 17.6234 22.75 15C22.75 12.3766 20.6234 10.25 18 10.25ZM14.75 15C14.75 13.2051 16.2051 11.75 18 11.75C19.7949 11.75 21.25 13.2051 21.25 15C21.25 16.7949 19.7949 18.25 18 18.25C16.2051 18.25 14.75 16.7949 14.75 15Z" fill="#000000"/>
  <path d="M10.3506 13.4258C10.7997 12.3823 11.4282 11.75 12 11.75C12.5718 11.75 13.2003 12.3823 13.6494 13.4258C13.8842 13.0126 13.3284 12.25 12 12.25C10.6716 12.25 10.1158 13.0126 10.3506 13.4258ZM9.17157 14.1716C9.17157 12.6005 10.4379 11.25 12 11.25C13.5621 11.25 14.8284 12.6005 14.8284 14.1716L13.3284 14.1716C13.3284 13.3432 12.7761 12.75 12 12.75C11.2239 12.75 10.6716 13.3432 10.6716 14.1716L9.17157 14.1716Z" fill="#000000"/>
  <path d="M3.20577 13.6415L5.55902 7.9415C5.89498 7.12773 6.35817 6.30373 7.02513 5.74171C7.69771 5.17484 8.58646 4.8125 9.75 4.8125L9.75 6.3125C8.91354 6.3125 8.33854 6.54641 7.90112 6.91454C7.45808 7.28752 7.10502 7.87227 6.81598 8.5715L4.46273 14.2715L3.20577 13.6415Z" fill="#000000"/>
  <path d="M20.7942 13.6415L18.441 7.9415C18.105 7.12773 17.6418 6.30373 16.9749 5.74171C16.3023 5.17484 15.4135 4.8125 14.25 4.8125L14.25 6.3125C15.0865 6.3125 15.6615 6.54641 16.0989 6.91454C16.5419 7.28752 16.895 7.87227 17.184 8.5715L19.5373 14.2715L20.7942 13.6415Z" fill="#000000"/>
</svg>
